<svg width="589" height="76" viewBox="0 0 589 76" fill="none" xmlns="http://www.w3.org/2000/svg">
<g opacity="0.4" filter="url(#filter0_di_3_3)">
<path d="M33.1719 29.3945H11.6914V52H4.94141V0.8125H36.6523V6.36719H11.6914V23.875H33.1719V29.3945ZM50.4336 13.9609V56.3945C50.4336 63.707 47.1172 67.3633 40.4844 67.3633C39.0547 67.3633 37.7305 67.1523 36.5117 66.7305V61.5273C37.2617 61.7148 38.2461 61.8086 39.4648 61.8086C40.918 61.8086 42.0195 61.4102 42.7695 60.6133C43.543 59.8398 43.9297 58.4805 43.9297 56.5352V13.9609H50.4336ZM43.2617 3.87109C43.2617 2.83984 43.5781 1.96094 44.2109 1.23438C44.8672 0.484375 45.8164 0.109375 47.0586 0.109375C48.3242 0.109375 49.2852 0.472656 49.9414 1.19922C50.5977 1.92578 50.9258 2.81641 50.9258 3.87109C50.9258 4.92578 50.5977 5.80469 49.9414 6.50781C49.2852 7.21094 48.3242 7.5625 47.0586 7.5625C45.793 7.5625 44.8438 7.21094 44.2109 6.50781C43.5781 5.80469 43.2617 4.92578 43.2617 3.87109ZM59.2227 32.6289C59.2227 28.9023 59.9375 25.5625 61.3672 22.6094C62.8203 19.6328 64.8594 17.3359 67.4844 15.7188C70.1328 14.0781 73.1328 13.2578 76.4844 13.2578C79.0625 13.2578 81.4531 13.75 83.6562 14.7344L86.2227 9.53125H90.582L86.9961 16.7383C91.5664 20.3477 93.8516 25.9023 93.8516 33.4023C93.8516 37.1055 93.125 40.4453 91.6719 43.4219C90.2188 46.3984 88.1797 48.6953 85.5547 50.3125C82.9297 51.9062 79.9297 52.7031 76.5547 52.7031C74.1172 52.7031 71.8906 52.293 69.875 51.4727L67.2734 56.7109H62.9141L66.4297 49.5742C61.625 46.082 59.2227 40.4336 59.2227 32.6289ZM65.7266 33.4023C65.7266 37.9492 66.8633 41.5234 69.1367 44.125L81.1953 19.7266C79.7422 18.9766 78.1719 18.6016 76.4844 18.6016C73.25 18.6016 70.6484 19.8789 68.6797 22.4336C66.7109 24.9883 65.7266 28.6445 65.7266 33.4023ZM87.3125 32.6289C87.3125 28.3633 86.293 24.9297 84.2539 22.3281L72.3008 46.5156C73.5898 47.1016 75.0078 47.3945 76.5547 47.3945C79.8125 47.3945 82.4141 46.1172 84.3594 43.5625C86.3281 40.9844 87.3125 37.5273 87.3125 33.1914V32.6289ZM123.875 41.9102C123.875 40.1523 123.207 38.793 121.871 37.832C120.559 36.8477 118.25 36.0039 114.945 35.3008C111.664 34.5977 109.051 33.7539 107.105 32.7695C105.184 31.7852 103.754 30.6133 102.816 29.2539C101.902 27.8945 101.445 26.2773 101.445 24.4023C101.445 21.2852 102.758 18.6484 105.383 16.4922C108.031 14.3359 111.406 13.2578 115.508 13.2578C119.82 13.2578 123.312 14.3711 125.984 16.5977C128.68 18.8242 130.027 21.6719 130.027 25.1406H123.488C123.488 23.3594 122.727 21.8242 121.203 20.5352C119.703 19.2461 117.805 18.6016 115.508 18.6016C113.141 18.6016 111.289 19.1172 109.953 20.1484C108.617 21.1797 107.949 22.5273 107.949 24.1914C107.949 25.7617 108.57 26.9453 109.812 27.7422C111.055 28.5391 113.293 29.3008 116.527 30.0273C119.785 30.7539 122.422 31.6211 124.438 32.6289C126.453 33.6367 127.941 34.8555 128.902 36.2852C129.887 37.6914 130.379 39.4141 130.379 41.4531C130.379 44.8516 129.02 47.582 126.301 49.6445C123.582 51.6836 120.055 52.7031 115.719 52.7031C112.672 52.7031 109.977 52.1641 107.633 51.0859C105.289 50.0078 103.449 48.5078 102.113 46.5859C100.801 44.6406 100.145 42.543 100.145 40.293H106.648C106.766 42.4727 107.633 44.207 109.25 45.4961C110.891 46.7617 113.047 47.3945 115.719 47.3945C118.18 47.3945 120.148 46.9023 121.625 45.918C123.125 44.9102 123.875 43.5742 123.875 41.9102ZM145.004 13.9609L145.215 18.7422C148.121 15.0859 151.918 13.2578 156.605 13.2578C164.645 13.2578 168.699 17.793 168.77 26.8633V52H162.266V26.8281C162.242 24.0859 161.609 22.0586 160.367 20.7461C159.148 19.4336 157.238 18.7773 154.637 18.7773C152.527 18.7773 150.676 19.3398 149.082 20.4648C147.488 21.5898 146.246 23.0664 145.355 24.8945V52H138.852V13.9609H145.004ZM185.645 52H179.141V13.9609H185.645V52ZM178.613 3.87109C178.613 2.81641 178.93 1.92578 179.562 1.19922C180.219 0.472656 181.18 0.109375 182.445 0.109375C183.711 0.109375 184.672 0.472656 185.328 1.19922C185.984 1.92578 186.312 2.81641 186.312 3.87109C186.312 4.92578 185.984 5.80469 185.328 6.50781C184.672 7.21094 183.711 7.5625 182.445 7.5625C181.18 7.5625 180.219 7.21094 179.562 6.50781C178.93 5.80469 178.613 4.92578 178.613 3.87109ZM218.234 41.9102C218.234 40.1523 217.566 38.793 216.23 37.832C214.918 36.8477 212.609 36.0039 209.305 35.3008C206.023 34.5977 203.41 33.7539 201.465 32.7695C199.543 31.7852 198.113 30.6133 197.176 29.2539C196.262 27.8945 195.805 26.2773 195.805 24.4023C195.805 21.2852 197.117 18.6484 199.742 16.4922C202.391 14.3359 205.766 13.2578 209.867 13.2578C214.18 13.2578 217.672 14.3711 220.344 16.5977C223.039 18.8242 224.387 21.6719 224.387 25.1406H217.848C217.848 23.3594 217.086 21.8242 215.562 20.5352C214.062 19.2461 212.164 18.6016 209.867 18.6016C207.5 18.6016 205.648 19.1172 204.312 20.1484C202.977 21.1797 202.309 22.5273 202.309 24.1914C202.309 25.7617 202.93 26.9453 204.172 27.7422C205.414 28.5391 207.652 29.3008 210.887 30.0273C214.145 30.7539 216.781 31.6211 218.797 32.6289C220.812 33.6367 222.301 34.8555 223.262 36.2852C224.246 37.6914 224.738 39.4141 224.738 41.4531C224.738 44.8516 223.379 47.582 220.66 49.6445C217.941 51.6836 214.414 52.7031 210.078 52.7031C207.031 52.7031 204.336 52.1641 201.992 51.0859C199.648 50.0078 197.809 48.5078 196.473 46.5859C195.16 44.6406 194.504 42.543 194.504 40.293H201.008C201.125 42.4727 201.992 44.207 203.609 45.4961C205.25 46.7617 207.406 47.3945 210.078 47.3945C212.539 47.3945 214.508 46.9023 215.984 45.918C217.484 44.9102 218.234 43.5742 218.234 41.9102ZM255.359 41.9102C255.359 40.1523 254.691 38.793 253.355 37.832C252.043 36.8477 249.734 36.0039 246.43 35.3008C243.148 34.5977 240.535 33.7539 238.59 32.7695C236.668 31.7852 235.238 30.6133 234.301 29.2539C233.387 27.8945 232.93 26.2773 232.93 24.4023C232.93 21.2852 234.242 18.6484 236.867 16.4922C239.516 14.3359 242.891 13.2578 246.992 13.2578C251.305 13.2578 254.797 14.3711 257.469 16.5977C260.164 18.8242 261.512 21.6719 261.512 25.1406H254.973C254.973 23.3594 254.211 21.8242 252.688 20.5352C251.188 19.2461 249.289 18.6016 246.992 18.6016C244.625 18.6016 242.773 19.1172 241.438 20.1484C240.102 21.1797 239.434 22.5273 239.434 24.1914C239.434 25.7617 240.055 26.9453 241.297 27.7422C242.539 28.5391 244.777 29.3008 248.012 30.0273C251.27 30.7539 253.906 31.6211 255.922 32.6289C257.938 33.6367 259.426 34.8555 260.387 36.2852C261.371 37.6914 261.863 39.4141 261.863 41.4531C261.863 44.8516 260.504 47.582 257.785 49.6445C255.066 51.6836 251.539 52.7031 247.203 52.7031C244.156 52.7031 241.461 52.1641 239.117 51.0859C236.773 50.0078 234.934 48.5078 233.598 46.5859C232.285 44.6406 231.629 42.543 231.629 40.293H238.133C238.25 42.4727 239.117 44.207 240.734 45.4961C242.375 46.7617 244.531 47.3945 247.203 47.3945C249.664 47.3945 251.633 46.9023 253.109 45.918C254.609 44.9102 255.359 43.5742 255.359 41.9102ZM286.121 52.7031C280.965 52.7031 276.77 51.0156 273.535 47.6406C270.301 44.2422 268.684 39.707 268.684 34.0352V32.8398C268.684 29.0664 269.398 25.7031 270.828 22.75C272.281 19.7734 274.297 17.4531 276.875 15.7891C279.477 14.1016 282.289 13.2578 285.312 13.2578C290.258 13.2578 294.102 14.8867 296.844 18.1445C299.586 21.4023 300.957 26.0664 300.957 32.1367V34.8438H275.188C275.281 38.5938 276.371 41.6289 278.457 43.9492C280.566 46.2461 283.238 47.3945 286.473 47.3945C288.77 47.3945 290.715 46.9258 292.309 45.9883C293.902 45.0508 295.297 43.8086 296.492 42.2617L300.465 45.3555C297.277 50.2539 292.496 52.7031 286.121 52.7031ZM285.312 18.6016C282.688 18.6016 280.484 19.5625 278.703 21.4844C276.922 23.3828 275.82 26.0547 275.398 29.5H294.453V29.0078C294.266 25.7031 293.375 23.1484 291.781 21.3438C290.188 19.5156 288.031 18.6016 285.312 18.6016ZM324.652 32.6289C324.652 28.9023 325.379 25.5508 326.832 22.5742C328.309 19.5977 330.348 17.3008 332.949 15.6836C335.574 14.0664 338.562 13.2578 341.914 13.2578C347.094 13.2578 351.277 15.0508 354.465 18.6367C357.676 22.2227 359.281 26.9922 359.281 32.9453V33.4023C359.281 37.1055 358.566 40.4336 357.137 43.3867C355.73 46.3164 353.703 48.6016 351.055 50.2422C348.43 51.8828 345.406 52.7031 341.984 52.7031C336.828 52.7031 332.645 50.9102 329.434 47.3242C326.246 43.7383 324.652 38.9922 324.652 33.0859V32.6289ZM331.191 33.4023C331.191 37.6211 332.164 41.0078 334.109 43.5625C336.078 46.1172 338.703 47.3945 341.984 47.3945C345.289 47.3945 347.914 46.1055 349.859 43.5273C351.805 40.9258 352.777 37.293 352.777 32.6289C352.777 28.457 351.781 25.082 349.789 22.5039C347.82 19.9023 345.195 18.6016 341.914 18.6016C338.703 18.6016 336.113 19.8789 334.145 22.4336C332.176 24.9883 331.191 28.6445 331.191 33.4023ZM365.891 32.6641C365.891 26.7344 367.262 22.0234 370.004 18.5312C372.746 15.0156 376.379 13.2578 380.902 13.2578C385.543 13.2578 389.164 14.8984 391.766 18.1797L392.082 13.9609H398.023V51.0859C398.023 56.0078 396.559 59.8867 393.629 62.7227C390.723 65.5586 386.809 66.9766 381.887 66.9766C379.145 66.9766 376.461 66.3906 373.836 65.2188C371.211 64.0469 369.207 62.4414 367.824 60.4023L371.199 56.5C373.988 59.9453 377.398 61.668 381.43 61.668C384.594 61.668 387.055 60.7773 388.812 58.9961C390.594 57.2148 391.484 54.707 391.484 51.4727V48.2031C388.883 51.2031 385.332 52.7031 380.832 52.7031C376.379 52.7031 372.77 50.9102 370.004 47.3242C367.262 43.7383 365.891 38.8516 365.891 32.6641ZM372.43 33.4023C372.43 37.6914 373.309 41.0664 375.066 43.5273C376.824 45.9648 379.285 47.1836 382.449 47.1836C386.551 47.1836 389.562 45.3203 391.484 41.5938V24.2266C389.492 20.5938 386.504 18.7773 382.52 18.7773C379.355 18.7773 376.883 20.0078 375.102 22.4688C373.32 24.9297 372.43 28.5742 372.43 33.4023ZM433.531 46.4805H457.789V52H426.746V0.8125H433.531V46.4805ZM486.406 48.2383C483.875 51.2148 480.16 52.7031 475.262 52.7031C471.207 52.7031 468.113 51.5312 465.98 49.1875C463.871 46.8203 462.805 43.3281 462.781 38.7109V13.9609H469.285V38.5352C469.285 44.3008 471.629 47.1836 476.316 47.1836C481.285 47.1836 484.59 45.332 486.23 41.6289V13.9609H492.734V52H486.547L486.406 48.2383ZM524.797 41.9102C524.797 40.1523 524.129 38.793 522.793 37.832C521.48 36.8477 519.172 36.0039 515.867 35.3008C512.586 34.5977 509.973 33.7539 508.027 32.7695C506.105 31.7852 504.676 30.6133 503.738 29.2539C502.824 27.8945 502.367 26.2773 502.367 24.4023C502.367 21.2852 503.68 18.6484 506.305 16.4922C508.953 14.3359 512.328 13.2578 516.43 13.2578C520.742 13.2578 524.234 14.3711 526.906 16.5977C529.602 18.8242 530.949 21.6719 530.949 25.1406H524.41C524.41 23.3594 523.648 21.8242 522.125 20.5352C520.625 19.2461 518.727 18.6016 516.43 18.6016C514.062 18.6016 512.211 19.1172 510.875 20.1484C509.539 21.1797 508.871 22.5273 508.871 24.1914C508.871 25.7617 509.492 26.9453 510.734 27.7422C511.977 28.5391 514.215 29.3008 517.449 30.0273C520.707 30.7539 523.344 31.6211 525.359 32.6289C527.375 33.6367 528.863 34.8555 529.824 36.2852C530.809 37.6914 531.301 39.4141 531.301 41.4531C531.301 44.8516 529.941 47.582 527.223 49.6445C524.504 51.6836 520.977 52.7031 516.641 52.7031C513.594 52.7031 510.898 52.1641 508.555 51.0859C506.211 50.0078 504.371 48.5078 503.035 46.5859C501.723 44.6406 501.066 42.543 501.066 40.293H507.57C507.688 42.4727 508.555 44.207 510.172 45.4961C511.812 46.7617 513.969 47.3945 516.641 47.3945C519.102 47.3945 521.07 46.9023 522.547 45.918C524.047 44.9102 524.797 43.5742 524.797 41.9102ZM561.922 41.9102C561.922 40.1523 561.254 38.793 559.918 37.832C558.605 36.8477 556.297 36.0039 552.992 35.3008C549.711 34.5977 547.098 33.7539 545.152 32.7695C543.23 31.7852 541.801 30.6133 540.863 29.2539C539.949 27.8945 539.492 26.2773 539.492 24.4023C539.492 21.2852 540.805 18.6484 543.43 16.4922C546.078 14.3359 549.453 13.2578 553.555 13.2578C557.867 13.2578 561.359 14.3711 564.031 16.5977C566.727 18.8242 568.074 21.6719 568.074 25.1406H561.535C561.535 23.3594 560.773 21.8242 559.25 20.5352C557.75 19.2461 555.852 18.6016 553.555 18.6016C551.188 18.6016 549.336 19.1172 548 20.1484C546.664 21.1797 545.996 22.5273 545.996 24.1914C545.996 25.7617 546.617 26.9453 547.859 27.7422C549.102 28.5391 551.34 29.3008 554.574 30.0273C557.832 30.7539 560.469 31.6211 562.484 32.6289C564.5 33.6367 565.988 34.8555 566.949 36.2852C567.934 37.6914 568.426 39.4141 568.426 41.4531C568.426 44.8516 567.066 47.582 564.348 49.6445C561.629 51.6836 558.102 52.7031 553.766 52.7031C550.719 52.7031 548.023 52.1641 545.68 51.0859C543.336 50.0078 541.496 48.5078 540.16 46.5859C538.848 44.6406 538.191 42.543 538.191 40.293H544.695C544.812 42.4727 545.68 44.207 547.297 45.4961C548.938 46.7617 551.094 47.3945 553.766 47.3945C556.227 47.3945 558.195 46.9023 559.672 45.918C561.172 44.9102 561.922 43.5742 561.922 41.9102ZM583.965 52H577.461V13.9609H583.965V52ZM576.934 3.87109C576.934 2.81641 577.25 1.92578 577.883 1.19922C578.539 0.472656 579.5 0.109375 580.766 0.109375C582.031 0.109375 582.992 0.472656 583.648 1.19922C584.305 1.92578 584.633 2.81641 584.633 3.87109C584.633 4.92578 584.305 5.80469 583.648 6.50781C582.992 7.21094 582.031 7.5625 580.766 7.5625C579.5 7.5625 578.539 7.21094 577.883 6.50781C577.25 5.80469 576.934 4.92578 576.934 3.87109Z" fill="#E22929"/>
<path d="M33.1719 29.3945V31.3945H35.1719V29.3945H33.1719ZM11.6914 29.3945V27.3945H9.69141V29.3945H11.6914ZM11.6914 52V54H13.6914V52H11.6914ZM4.94141 52H2.94141V54H4.94141V52ZM4.94141 0.8125V-1.1875H2.94141V0.8125H4.94141ZM36.6523 0.8125H38.6523V-1.1875H36.6523V0.8125ZM36.6523 6.36719V8.36719H38.6523V6.36719H36.6523ZM11.6914 6.36719V4.36719H9.69141V6.36719H11.6914ZM11.6914 23.875H9.69141V25.875H11.6914V23.875ZM33.1719 23.875H35.1719V21.875H33.1719V23.875ZM33.1719 27.3945H11.6914V31.3945H33.1719V27.3945ZM9.69141 29.3945V52H13.6914V29.3945H9.69141ZM11.6914 50H4.94141V54H11.6914V50ZM6.94141 52V0.8125H2.94141V52H6.94141ZM4.94141 2.8125H36.6523V-1.1875H4.94141V2.8125ZM34.6523 0.8125V6.36719H38.6523V0.8125H34.6523ZM36.6523 4.36719H11.6914V8.36719H36.6523V4.36719ZM9.69141 6.36719V23.875H13.6914V6.36719H9.69141ZM11.6914 25.875H33.1719V21.875H11.6914V25.875ZM31.1719 23.875V29.3945H35.1719V23.875H31.1719ZM50.4336 13.9609H52.4336V11.9609H50.4336V13.9609ZM36.5117 66.7305H34.5117V68.1546L35.8575 68.6204L36.5117 66.7305ZM36.5117 61.5273L36.9968 59.5871L34.5117 58.9658V61.5273H36.5117ZM42.7695 60.6133L41.3553 59.1991L41.3339 59.2205L41.3131 59.2426L42.7695 60.6133ZM43.9297 13.9609V11.9609H41.9297V13.9609H43.9297ZM44.2109 1.23438L42.7058 -0.0826378L42.7028 -0.0791864L44.2109 1.23438ZM48.4336 13.9609V56.3945H52.4336V13.9609H48.4336ZM48.4336 56.3945C48.4336 59.7881 47.6599 61.96 46.4649 63.2774C45.3035 64.5578 43.4395 65.3633 40.4844 65.3633V69.3633C44.1621 69.3633 47.2726 68.3407 49.4277 65.9648C51.5491 63.6259 52.4336 60.3134 52.4336 56.3945H48.4336ZM40.4844 65.3633C39.2534 65.3633 38.1527 65.1821 37.1659 64.8405L35.8575 68.6204C37.3082 69.1226 38.856 69.3633 40.4844 69.3633V65.3633ZM38.5117 66.7305V61.5273H34.5117V66.7305H38.5117ZM36.0266 63.4676C36.999 63.7107 38.1648 63.8086 39.4648 63.8086V59.8086C38.3274 59.8086 37.5244 59.719 36.9968 59.5871L36.0266 63.4676ZM39.4648 63.8086C41.2805 63.8086 42.9855 63.3019 44.2259 61.984L41.3131 59.2426C41.0535 59.5184 40.5554 59.8086 39.4648 59.8086V63.8086ZM44.1837 62.0275C45.5347 60.6766 45.9297 58.6317 45.9297 56.5352H41.9297C41.9297 58.3292 41.5512 59.0031 41.3553 59.1991L44.1837 62.0275ZM45.9297 56.5352V13.9609H41.9297V56.5352H45.9297ZM43.9297 15.9609H50.4336V11.9609H43.9297V15.9609ZM45.2617 3.87109C45.2617 3.28589 45.4268 2.88354 45.7191 2.54794L42.7028 -0.0791864C41.7294 1.03834 41.2617 2.39379 41.2617 3.87109H45.2617ZM45.7161 2.55138C45.9019 2.33898 46.2395 2.10938 47.0586 2.10938V-1.89062C45.3933 -1.89062 43.8324 -1.37023 42.7058 -0.082634L45.7161 2.55138ZM47.0586 2.10938C47.9343 2.10938 48.2839 2.34787 48.4572 2.53979L51.4256 -0.141354C50.2865 -1.40256 48.7142 -1.89062 47.0586 -1.89062V2.10938ZM48.4572 2.53979C48.7546 2.86901 48.9258 3.27008 48.9258 3.87109H52.9258C52.9258 2.36273 52.4408 0.982551 51.4256 -0.141354L48.4572 2.53979ZM48.9258 3.87109C48.9258 4.47243 48.7552 4.84756 48.4793 5.14318L51.4035 7.87245C52.4401 6.76182 52.9258 5.37913 52.9258 3.87109H48.9258ZM48.4793 5.14318C48.3107 5.32383 47.9536 5.5625 47.0586 5.5625V9.5625C48.6948 9.5625 50.2596 9.09805 51.4035 7.87245L48.4793 5.14318ZM47.0586 5.5625C46.1589 5.5625 45.8347 5.32225 45.6975 5.16988L42.7243 7.84574C43.8528 9.09962 45.4271 9.5625 47.0586 9.5625V5.5625ZM45.6975 5.16988C45.434 4.87707 45.2617 4.49287 45.2617 3.87109H41.2617C41.2617 5.35869 41.7223 6.7323 42.7243 7.84574L45.6975 5.16988ZM61.3672 22.6094L59.5699 21.732L59.5671 21.7379L61.3672 22.6094ZM67.4844 15.7188L68.5334 17.4216L68.5376 17.419L67.4844 15.7188ZM83.6562 14.7344L82.8404 16.5604L84.5982 17.3458L85.4499 15.6191L83.6562 14.7344ZM86.2227 9.53125V7.53125H84.9791L84.429 8.64653L86.2227 9.53125ZM90.582 9.53125L92.3726 10.4222L93.811 7.53125H90.582V9.53125ZM86.9961 16.7383L85.2055 15.8473L84.4821 17.3013L85.7565 18.3078L86.9961 16.7383ZM85.5547 50.3125L86.5927 52.0221L86.6037 52.0153L85.5547 50.3125ZM69.875 51.4727L70.6289 49.6202L68.9095 48.9204L68.0837 50.583L69.875 51.4727ZM67.2734 56.7109V58.7109H68.5132L69.0647 57.6006L67.2734 56.7109ZM62.9141 56.7109L61.1199 55.8271L59.6993 58.7109H62.9141V56.7109ZM66.4297 49.5742L68.2238 50.458L68.9682 48.9468L67.6056 47.9564L66.4297 49.5742ZM69.1367 44.125L67.6307 45.441L69.6022 47.6971L70.9297 45.0112L69.1367 44.125ZM81.1953 19.7266L82.9883 20.6127L83.8591 18.8507L82.1126 17.9493L81.1953 19.7266ZM84.2539 22.3281L85.828 21.0944L83.8683 18.5941L82.4609 21.442L84.2539 22.3281ZM72.3008 46.5156L70.5078 45.6295L69.5926 47.4815L71.4732 48.3364L72.3008 46.5156ZM84.3594 43.5625L82.7698 42.3487L82.7682 42.3509L84.3594 43.5625ZM61.2227 32.6289C61.2227 29.163 61.886 26.1275 63.1673 23.4809L59.5671 21.7379C57.989 24.9975 57.2227 28.6416 57.2227 32.6289H61.2227ZM63.1645 23.4868C64.4643 20.8243 66.2551 18.8252 68.5334 17.4215L66.4353 14.016C63.4637 15.8467 61.1764 18.4414 59.5699 21.732L63.1645 23.4868ZM68.5376 17.419C70.8456 15.9892 73.4756 15.2578 76.4844 15.2578V11.2578C72.79 11.2578 69.42 12.167 66.4311 14.0185L68.5376 17.419ZM76.4844 15.2578C78.8009 15.2578 80.9112 15.6984 82.8404 16.5604L84.4721 12.9084C81.995 11.8016 79.3241 11.2578 76.4844 11.2578V15.2578ZM85.4499 15.6191L88.0163 10.416L84.429 8.64653L81.8626 13.8497L85.4499 15.6191ZM86.2227 11.5312H90.582V7.53125H86.2227V11.5312ZM88.7914 8.64032L85.2055 15.8473L88.7867 17.6292L92.3726 10.4222L88.7914 8.64032ZM85.7565 18.3078C89.714 21.4332 91.8516 26.3227 91.8516 33.4023H95.8516C95.8516 25.482 93.4188 19.2621 88.2356 15.1687L85.7565 18.3078ZM91.8516 33.4023C91.8516 36.8376 91.1793 39.8719 89.8746 42.5445L93.4691 44.2993C95.0707 41.0187 95.8516 37.3733 95.8516 33.4023H91.8516ZM89.8746 42.5445C88.5748 45.207 86.784 47.2061 84.5056 48.6097L86.6037 52.0153C89.5754 50.1845 91.8627 47.5899 93.4691 44.2993L89.8746 42.5445ZM84.5167 48.6029C82.2351 49.9882 79.6011 50.7031 76.5547 50.7031V54.7031C80.2583 54.7031 83.6243 53.8243 86.5926 52.0221L84.5167 48.6029ZM76.5547 50.7031C74.3447 50.7031 72.378 50.332 70.6289 49.6202L69.1211 53.3251C71.4032 54.2539 73.8897 54.7031 76.5547 54.7031V50.7031ZM68.0837 50.583L65.4822 55.8213L69.0647 57.6006L71.6663 52.3623L68.0837 50.583ZM67.2734 54.7109H62.9141V58.7109H67.2734V54.7109ZM64.7082 57.5947L68.2238 50.458L64.6356 48.6904L61.1199 55.8271L64.7082 57.5947ZM67.6056 47.9564C63.4743 44.9537 61.2227 40.0139 61.2227 32.6289H57.2227C57.2227 40.8533 59.7757 47.2104 65.2538 51.192L67.6056 47.9564ZM63.7266 33.4023C63.7266 38.2776 64.9495 42.3728 67.6307 45.441L70.6427 42.809C68.7771 40.6741 67.7266 37.6209 67.7266 33.4023H63.7266ZM70.9297 45.0112L82.9883 20.6127L79.4023 18.8404L67.3438 43.2388L70.9297 45.0112ZM82.1126 17.9493C80.3666 17.0482 78.4805 16.6016 76.4844 16.6016V20.6016C77.8633 20.6016 79.1177 20.9049 80.278 21.5038L82.1126 17.9493ZM76.4844 16.6016C72.6317 16.6016 69.4442 18.1651 67.0955 21.2128L70.2639 23.6544C71.8527 21.5927 73.8683 20.6016 76.4844 20.6016V16.6016ZM67.0955 21.2128C64.7557 24.249 63.7266 28.4043 63.7266 33.4023H67.7266C67.7266 28.8848 68.6662 25.7276 70.2639 23.6544L67.0955 21.2128ZM89.3125 32.6289C89.3125 28.0472 88.2143 24.1389 85.828 21.0944L82.6798 23.5619C84.3716 25.7204 85.3125 28.6794 85.3125 32.6289H89.3125ZM82.4609 21.442L70.5078 45.6295L74.0938 47.4017L86.0469 23.2142L82.4609 21.442ZM71.4732 48.3364C73.0454 49.051 74.749 49.3945 76.5547 49.3945V45.3945C75.2666 45.3945 74.1343 45.1521 73.1284 44.6949L71.4732 48.3364ZM76.5547 49.3945C80.4262 49.3945 83.6206 47.834 85.9506 44.7741L82.7682 42.3509C81.2076 44.4003 79.1988 45.3945 76.5547 45.3945V49.3945ZM85.9489 44.7763C88.261 41.7485 89.3125 37.8192 89.3125 33.1914H85.3125C85.3125 37.2355 84.3952 40.2202 82.7698 42.3487L85.9489 44.7763ZM89.3125 33.1914V32.6289H85.3125V33.1914H89.3125ZM121.871 37.832L120.671 39.432L120.687 39.444L120.703 39.4556L121.871 37.832ZM114.945 35.3008L114.526 37.2564L114.529 37.257L114.945 35.3008ZM107.105 32.7695L106.194 34.5496L106.202 34.5541L107.105 32.7695ZM102.816 29.2539L101.157 30.3699L101.163 30.3797L101.17 30.3894L102.816 29.2539ZM105.383 16.4922L104.12 14.9412L104.113 14.9467L105.383 16.4922ZM125.984 16.5977L124.704 18.1341L124.711 18.1396L125.984 16.5977ZM130.027 25.1406V27.1406H132.027V25.1406H130.027ZM123.488 25.1406H121.488V27.1406H123.488V25.1406ZM121.203 20.5352L119.9 22.052L119.905 22.057L119.911 22.0619L121.203 20.5352ZM116.527 30.0273L116.089 31.9787L116.092 31.9794L116.527 30.0273ZM128.902 36.2852L127.242 37.4008L127.253 37.4166L127.264 37.4321L128.902 36.2852ZM126.301 49.6445L127.501 51.2446L127.51 51.2379L126.301 49.6445ZM102.113 46.5859L100.455 47.7045L100.463 47.7161L100.471 47.7275L102.113 46.5859ZM100.145 40.293V38.293H98.1445V40.293H100.145ZM106.648 40.293L108.646 40.1856L108.544 38.293H106.648V40.293ZM109.25 45.4961L108.003 47.06L108.016 47.07L108.028 47.0797L109.25 45.4961ZM121.625 45.918L122.734 47.5821L122.74 47.5781L121.625 45.918ZM125.875 41.9102C125.875 39.5602 124.938 37.5742 123.039 36.2084L120.703 39.4556C121.476 40.0117 121.875 40.7445 121.875 41.9102H125.875ZM123.071 36.232C121.389 34.9703 118.712 34.0574 115.362 33.3446L114.529 37.257C117.788 37.9504 119.728 38.725 120.671 39.432L123.071 36.232ZM115.364 33.3452C112.171 32.6609 109.742 31.862 108.008 30.985L106.202 34.5541C108.36 35.6458 111.157 36.5344 114.526 37.2564L115.364 33.3452ZM108.017 30.9894C106.302 30.111 105.164 29.1345 104.463 28.1184L101.17 30.3894C102.344 32.092 104.065 33.4593 106.194 34.5496L108.017 30.9894ZM104.476 28.1379C103.815 27.1544 103.445 25.939 103.445 24.4023H99.4453C99.4453 26.6157 99.9899 28.6347 101.157 30.3699L104.476 28.1379ZM103.445 24.4023C103.445 21.9423 104.442 19.8528 106.652 18.0376L104.113 14.9467C101.073 17.444 99.4453 20.628 99.4453 24.4023H103.445ZM106.646 18.0432C108.869 16.2327 111.77 15.2578 115.508 15.2578V11.2578C111.042 11.2578 107.193 12.4392 104.12 14.9412L106.646 18.0432ZM115.508 15.2578C119.468 15.2578 122.471 16.2737 124.704 18.1341L127.265 15.0612C124.154 12.4685 120.172 11.2578 115.508 11.2578V15.2578ZM124.711 18.1396C126.95 19.9897 128.027 22.2739 128.027 25.1406H132.027C132.027 21.0699 130.409 17.6588 127.258 15.0557L124.711 18.1396ZM130.027 23.1406H123.488V27.1406H130.027V23.1406ZM125.488 25.1406C125.488 22.6959 124.407 20.6261 122.495 19.0084L119.911 22.0619C121.046 23.0224 121.488 24.0228 121.488 25.1406H125.488ZM122.507 19.0183C120.586 17.3682 118.201 16.6016 115.508 16.6016V20.6016C117.408 20.6016 118.82 21.124 119.9 22.052L122.507 19.0183ZM115.508 16.6016C112.873 16.6016 110.534 17.1738 108.731 18.5653L111.175 21.7316C112.044 21.0606 113.409 20.6016 115.508 20.6016V16.6016ZM108.731 18.5653C106.913 19.9689 105.949 21.8974 105.949 24.1914H109.949C109.949 23.1573 110.322 22.3905 111.175 21.7316L108.731 18.5653ZM105.949 24.1914C105.949 26.3906 106.874 28.2335 108.733 29.4256L110.892 26.0588C110.266 25.6571 109.949 25.1328 109.949 24.1914H105.949ZM108.733 29.4256C110.296 30.4284 112.84 31.2488 116.089 31.9787L116.966 28.076C113.746 27.3528 111.813 26.6497 110.892 26.0588L108.733 29.4256ZM116.092 31.9794C119.259 32.6857 121.725 33.5087 123.543 34.4178L125.332 30.8401C123.119 29.7335 120.311 28.8221 116.963 28.0753L116.092 31.9794ZM123.543 34.4178C125.342 35.3173 126.525 36.333 127.242 37.4008L130.562 35.1695C129.358 33.3779 127.564 31.9561 125.332 30.8401L123.543 34.4178ZM127.264 37.4321C127.971 38.4428 128.379 39.7455 128.379 41.4531H132.379C132.379 39.0826 131.802 36.94 130.541 35.1382L127.264 37.4321ZM128.379 41.4531C128.379 44.2229 127.315 46.3649 125.092 48.0511L127.51 51.2379C130.724 48.7991 132.379 45.4803 132.379 41.4531H128.379ZM125.101 48.0445C122.814 49.76 119.742 50.7031 115.719 50.7031V54.7031C120.367 54.7031 124.351 53.6072 127.501 51.2445L125.101 48.0445ZM115.719 50.7031C112.909 50.7031 110.507 50.2066 108.469 49.269L106.797 52.9029C109.446 54.1215 112.435 54.7031 115.719 54.7031V50.7031ZM108.469 49.269C106.415 48.3243 104.867 47.0439 103.756 45.4444L100.471 47.7275C102.031 49.9718 104.163 51.6913 106.797 52.9029L108.469 49.269ZM103.771 45.4673C102.672 43.8374 102.145 42.1266 102.145 40.293H98.1445C98.1445 42.9593 98.93 45.4438 100.455 47.7045L103.771 45.4673ZM100.145 42.293H106.648V38.293H100.145V42.293ZM104.651 40.4003C104.797 43.1146 105.912 45.3931 108.003 47.06L110.497 43.9321C109.353 43.0209 108.734 41.8307 108.646 40.1856L104.651 40.4003ZM108.028 47.0797C110.109 48.6847 112.734 49.3945 115.719 49.3945V45.3945C113.36 45.3945 111.672 44.8387 110.472 43.9125L108.028 47.0797ZM115.719 49.3945C118.427 49.3945 120.825 48.8551 122.734 47.5821L120.516 44.2539C119.472 44.9496 117.932 45.3945 115.719 45.3945V49.3945ZM122.74 47.5781C124.737 46.2365 125.875 44.3054 125.875 41.9102H121.875C121.875 42.8431 121.513 43.5838 120.51 44.2579L122.74 47.5781ZM145.004 13.9609L147.002 13.8728L146.918 11.9609H145.004V13.9609ZM145.215 18.7422L143.217 18.8303L143.453 24.1735L146.78 19.9867L145.215 18.7422ZM168.77 26.8633H170.77V26.8555L170.769 26.8478L168.77 26.8633ZM168.77 52V54H170.77V52H168.77ZM162.266 52H160.266V54H162.266V52ZM162.266 26.8281H164.266V26.8196L164.266 26.811L162.266 26.8281ZM160.367 20.7461L158.902 22.107L158.908 22.114L158.915 22.1209L160.367 20.7461ZM145.355 24.8945L143.557 24.0186L143.355 24.4333V24.8945H145.355ZM145.355 52V54H147.355V52H145.355ZM138.852 52H136.852V54H138.852V52ZM138.852 13.9609V11.9609H136.852V13.9609H138.852ZM143.006 14.0491L143.217 18.8303L147.213 18.654L147.002 13.8728L143.006 14.0491ZM146.78 19.9867C149.306 16.8098 152.525 15.2578 156.605 15.2578V11.2578C151.311 11.2578 146.936 13.3621 143.649 17.4977L146.78 19.9867ZM156.605 15.2578C160.249 15.2578 162.649 16.2743 164.185 17.9922C165.761 19.755 166.736 22.5978 166.77 26.8788L170.769 26.8478C170.732 22.0584 169.645 18.0985 167.167 15.3262C164.648 12.5089 161.001 11.2578 156.605 11.2578V15.2578ZM166.77 26.8633V52H170.77V26.8633H166.77ZM168.77 50H162.266V54H168.77V50ZM164.266 52V26.8281H160.266V52H164.266ZM164.266 26.811C164.24 23.8179 163.552 21.2014 161.82 19.3713L158.915 22.1209C159.667 22.9158 160.244 24.3539 160.266 26.8452L164.266 26.811ZM161.833 19.3852C160.091 17.5099 157.54 16.7773 154.637 16.7773V20.7773C156.937 20.7773 158.205 21.3573 158.902 22.107L161.833 19.3852ZM154.637 16.7773C152.15 16.7773 149.888 17.4481 147.929 18.8309L150.235 22.0988C151.464 21.2316 152.905 20.7773 154.637 20.7773V16.7773ZM147.929 18.8309C146.048 20.1586 144.589 21.9009 143.557 24.0186L147.153 25.7705C147.903 24.2319 148.929 23.0211 150.235 22.0988L147.929 18.8309ZM143.355 24.8945V52H147.355V24.8945H143.355ZM145.355 50H138.852V54H145.355V50ZM140.852 52V13.9609H136.852V52H140.852ZM138.852 15.9609H145.004V11.9609H138.852V15.9609ZM185.645 52V54H187.645V52H185.645ZM179.141 52H177.141V54H179.141V52ZM179.141 13.9609V11.9609H177.141V13.9609H179.141ZM185.645 13.9609H187.645V11.9609H185.645V13.9609ZM179.562 1.19922L178.078 -0.141354L178.066 -0.127956L178.054 -0.114343L179.562 1.19922ZM179.562 6.50781L178.076 7.84574L178.088 7.85921L178.1 7.87245L179.562 6.50781ZM185.645 50H179.141V54H185.645V50ZM181.141 52V13.9609H177.141V52H181.141ZM179.141 15.9609H185.645V11.9609H179.141V15.9609ZM183.645 13.9609V52H187.645V13.9609H183.645ZM180.613 3.87109C180.613 3.25003 180.786 2.83972 181.071 2.51278L178.054 -0.114343C177.073 1.01184 176.613 2.38279 176.613 3.87109H180.613ZM181.047 2.53979C181.22 2.34787 181.57 2.10938 182.445 2.10938V-1.89062C180.79 -1.89062 179.217 -1.40256 178.078 -0.141354L181.047 2.53979ZM182.445 2.10938C183.321 2.10938 183.671 2.34787 183.844 2.53979L186.812 -0.141354C185.673 -1.40256 184.101 -1.89062 182.445 -1.89062V2.10938ZM183.844 2.53979C184.141 2.86901 184.312 3.27008 184.312 3.87109H188.312C188.312 2.36273 187.827 0.982551 186.812 -0.141354L183.844 2.53979ZM184.312 3.87109C184.312 4.47243 184.142 4.84756 183.866 5.14318L186.79 7.87245C187.827 6.76182 188.312 5.37913 188.312 3.87109H184.312ZM183.866 5.14318C183.697 5.32383 183.34 5.5625 182.445 5.5625V9.5625C184.082 9.5625 185.646 9.09805 186.79 7.87245L183.866 5.14318ZM182.445 5.5625C181.55 5.5625 181.193 5.32383 181.025 5.14318L178.1 7.87245C179.244 9.09805 180.809 9.5625 182.445 9.5625V5.5625ZM181.049 5.16988C180.786 4.87707 180.613 4.49287 180.613 3.87109H176.613C176.613 5.35869 177.074 6.7323 178.076 7.84574L181.049 5.16988ZM216.23 37.832L215.03 39.432L215.046 39.444L215.063 39.4556L216.23 37.832ZM209.305 35.3008L208.886 37.2564L208.888 37.257L209.305 35.3008ZM201.465 32.7695L200.553 34.5496L200.562 34.5541L201.465 32.7695ZM197.176 29.2539L195.516 30.3699L195.523 30.3797L195.529 30.3894L197.176 29.2539ZM199.742 16.4922L198.479 14.9412L198.473 14.9467L199.742 16.4922ZM220.344 16.5977L219.063 18.1341L219.07 18.1396L220.344 16.5977ZM224.387 25.1406V27.1406H226.387V25.1406H224.387ZM217.848 25.1406H215.848V27.1406H217.848V25.1406ZM215.562 20.5352L214.259 22.052L214.265 22.057L214.271 22.0619L215.562 20.5352ZM210.887 30.0273L210.448 31.9787L210.451 31.9794L210.887 30.0273ZM223.262 36.2852L221.602 37.4008L221.612 37.4166L221.623 37.4321L223.262 36.2852ZM220.66 49.6445L221.86 51.2446L221.869 51.2379L220.66 49.6445ZM196.473 46.5859L194.815 47.7045L194.823 47.7161L194.83 47.7275L196.473 46.5859ZM194.504 40.293V38.293H192.504V40.293H194.504ZM201.008 40.293L203.005 40.1856L202.903 38.293H201.008V40.293ZM203.609 45.4961L202.363 47.06L202.375 47.07L202.388 47.0797L203.609 45.4961ZM215.984 45.918L217.094 47.5821L217.1 47.5781L215.984 45.918ZM220.234 41.9102C220.234 39.5602 219.297 37.5742 217.398 36.2084L215.063 39.4556C215.836 40.0117 216.234 40.7445 216.234 41.9102H220.234ZM217.43 36.232C215.748 34.9703 213.071 34.0574 209.721 33.3446L208.888 37.257C212.148 37.9504 214.088 38.725 215.03 39.432L217.43 36.232ZM209.724 33.3452C206.531 32.6609 204.101 31.862 202.368 30.985L200.562 34.5541C202.719 35.6458 205.516 36.5344 208.886 37.2564L209.724 33.3452ZM202.377 30.9894C200.661 30.111 199.523 29.1345 198.822 28.1184L195.529 30.3894C196.704 32.092 198.424 33.4593 200.553 34.5496L202.377 30.9894ZM198.835 28.1379C198.174 27.1544 197.805 25.939 197.805 24.4023H193.805C193.805 26.6157 194.349 28.6347 195.516 30.3699L198.835 28.1379ZM197.805 24.4023C197.805 21.9423 198.802 19.8528 201.012 18.0376L198.473 14.9467C195.432 17.444 193.805 20.628 193.805 24.4023H197.805ZM201.005 18.0432C203.229 16.2327 206.13 15.2578 209.867 15.2578V11.2578C205.402 11.2578 201.553 12.4392 198.479 14.9412L201.005 18.0432ZM209.867 15.2578C213.828 15.2578 216.831 16.2737 219.063 18.1341L221.624 15.0612C218.513 12.4685 214.532 11.2578 209.867 11.2578V15.2578ZM219.07 18.1396C221.31 19.9897 222.387 22.2739 222.387 25.1406H226.387C226.387 21.0699 224.769 17.6588 221.618 15.0557L219.07 18.1396ZM224.387 23.1406H217.848V27.1406H224.387V23.1406ZM219.848 25.1406C219.848 22.6959 218.766 20.6261 216.854 19.0084L214.271 22.0619C215.406 23.0224 215.848 24.0228 215.848 25.1406H219.848ZM216.866 19.0183C214.946 17.3682 212.561 16.6016 209.867 16.6016V20.6016C211.767 20.6016 213.179 21.124 214.259 22.052L216.866 19.0183ZM209.867 16.6016C207.232 16.6016 204.893 17.1738 203.09 18.5653L205.535 21.7316C206.404 21.0606 207.768 20.6016 209.867 20.6016V16.6016ZM203.09 18.5653C201.272 19.9689 200.309 21.8974 200.309 24.1914H204.309C204.309 23.1573 204.681 22.3905 205.535 21.7316L203.09 18.5653ZM200.309 24.1914C200.309 26.3906 201.234 28.2335 203.092 29.4256L205.252 26.0588C204.626 25.6571 204.309 25.1328 204.309 24.1914H200.309ZM203.092 29.4256C204.655 30.4284 207.199 31.2488 210.448 31.9787L211.325 28.076C208.106 27.3528 206.173 26.6497 205.252 26.0588L203.092 29.4256ZM210.451 31.9794C213.619 32.6857 216.084 33.5087 217.902 34.4178L219.691 30.8401C217.478 29.7335 214.671 28.8221 211.322 28.0753L210.451 31.9794ZM217.902 34.4178C219.702 35.3173 220.884 36.333 221.602 37.4008L224.922 35.1695C223.717 33.3779 221.923 31.9561 219.691 30.8401L217.902 34.4178ZM221.623 37.4321C222.331 38.4428 222.738 39.7455 222.738 41.4531H226.738C226.738 39.0826 226.161 36.94 224.9 35.1382L221.623 37.4321ZM222.738 41.4531C222.738 44.2229 221.674 46.3649 219.451 48.0511L221.869 51.2379C225.084 48.7991 226.738 45.4803 226.738 41.4531H222.738ZM219.46 48.0445C217.173 49.76 214.102 50.7031 210.078 50.7031V54.7031C214.726 54.7031 218.71 53.6072 221.86 51.2445L219.46 48.0445ZM210.078 50.7031C207.268 50.7031 204.866 50.2066 202.828 49.269L201.156 52.9029C203.805 54.1215 206.794 54.7031 210.078 54.7031V50.7031ZM202.828 49.269C200.774 48.3243 199.227 47.0439 198.115 45.4444L194.83 47.7275C196.39 49.9718 198.522 51.6913 201.156 52.9029L202.828 49.269ZM198.131 45.4673C197.031 43.8374 196.504 42.1266 196.504 40.293H192.504C192.504 42.9593 193.289 45.4438 194.815 47.7045L198.131 45.4673ZM194.504 42.293H201.008V38.293H194.504V42.293ZM199.011 40.4003C199.157 43.1146 200.272 45.3931 202.363 47.06L204.856 43.9321C203.713 43.0209 203.093 41.8307 203.005 40.1856L199.011 40.4003ZM202.388 47.0797C204.468 48.6847 207.093 49.3945 210.078 49.3945V45.3945C207.719 45.3945 206.032 44.8387 204.831 43.9125L202.388 47.0797ZM210.078 49.3945C212.786 49.3945 215.184 48.8551 217.094 47.5821L214.875 44.2539C213.831 44.9496 212.292 45.3945 210.078 45.3945V49.3945ZM217.1 47.5781C219.096 46.2365 220.234 44.3054 220.234 41.9102H216.234C216.234 42.8431 215.872 43.5838 214.869 44.2579L217.1 47.5781ZM253.355 37.832L252.155 39.432L252.171 39.444L252.188 39.4556L253.355 37.832ZM246.43 35.3008L246.011 37.2564L246.013 37.257L246.43 35.3008ZM238.59 32.7695L237.678 34.5496L237.687 34.5541L238.59 32.7695ZM234.301 29.2539L232.641 30.3699L232.648 30.3797L232.654 30.3894L234.301 29.2539ZM236.867 16.4922L235.604 14.9412L235.598 14.9467L236.867 16.4922ZM257.469 16.5977L256.188 18.1341L256.195 18.1396L257.469 16.5977ZM261.512 25.1406V27.1406H263.512V25.1406H261.512ZM254.973 25.1406H252.973V27.1406H254.973V25.1406ZM252.688 20.5352L251.384 22.052L251.39 22.057L251.396 22.0619L252.688 20.5352ZM248.012 30.0273L247.573 31.9787L247.576 31.9794L248.012 30.0273ZM260.387 36.2852L258.727 37.4008L258.737 37.4166L258.748 37.4321L260.387 36.2852ZM257.785 49.6445L258.985 51.2446L258.994 51.2379L257.785 49.6445ZM233.598 46.5859L231.94 47.7045L231.948 47.7161L231.955 47.7275L233.598 46.5859ZM231.629 40.293V38.293H229.629V40.293H231.629ZM238.133 40.293L240.13 40.1856L240.028 38.293H238.133V40.293ZM240.734 45.4961L239.488 47.06L239.5 47.07L239.513 47.0797L240.734 45.4961ZM253.109 45.918L254.219 47.5821L254.225 47.5781L253.109 45.918ZM257.359 41.9102C257.359 39.5602 256.422 37.5742 254.523 36.2084L252.188 39.4556C252.961 40.0117 253.359 40.7445 253.359 41.9102H257.359ZM254.555 36.232C252.873 34.9703 250.196 34.0574 246.846 33.3446L246.013 37.257C249.273 37.9504 251.213 38.725 252.155 39.432L254.555 36.232ZM246.849 33.3452C243.656 32.6609 241.226 31.862 239.493 30.985L237.687 34.5541C239.844 35.6458 242.641 36.5344 246.011 37.2564L246.849 33.3452ZM239.502 30.9894C237.786 30.111 236.648 29.1345 235.947 28.1184L232.654 30.3894C233.829 32.092 235.549 33.4593 237.678 34.5496L239.502 30.9894ZM235.96 28.1379C235.299 27.1544 234.93 25.939 234.93 24.4023H230.93C230.93 26.6157 231.474 28.6347 232.641 30.3699L235.96 28.1379ZM234.93 24.4023C234.93 21.9423 235.927 19.8528 238.137 18.0376L235.598 14.9467C232.557 17.444 230.93 20.628 230.93 24.4023H234.93ZM238.13 18.0432C240.354 16.2327 243.255 15.2578 246.992 15.2578V11.2578C242.527 11.2578 238.678 12.4392 235.604 14.9412L238.13 18.0432ZM246.992 15.2578C250.953 15.2578 253.956 16.2737 256.188 18.1341L258.749 15.0612C255.638 12.4685 251.657 11.2578 246.992 11.2578V15.2578ZM256.195 18.1396C258.435 19.9897 259.512 22.2739 259.512 25.1406H263.512C263.512 21.0699 261.894 17.6588 258.743 15.0557L256.195 18.1396ZM261.512 23.1406H254.973V27.1406H261.512V23.1406ZM256.973 25.1406C256.973 22.6959 255.891 20.6261 253.979 19.0084L251.396 22.0619C252.531 23.0224 252.973 24.0228 252.973 25.1406H256.973ZM253.991 19.0183C252.071 17.3682 249.686 16.6016 246.992 16.6016V20.6016C248.892 20.6016 250.304 21.124 251.384 22.052L253.991 19.0183ZM246.992 16.6016C244.357 16.6016 242.018 17.1738 240.215 18.5653L242.66 21.7316C243.529 21.0606 244.893 20.6016 246.992 20.6016V16.6016ZM240.215 18.5653C238.397 19.9689 237.434 21.8974 237.434 24.1914H241.434C241.434 23.1573 241.806 22.3905 242.66 21.7316L240.215 18.5653ZM237.434 24.1914C237.434 26.3906 238.359 28.2335 240.217 29.4256L242.377 26.0588C241.751 25.6571 241.434 25.1328 241.434 24.1914H237.434ZM240.217 29.4256C241.78 30.4284 244.324 31.2488 247.573 31.9787L248.45 28.076C245.231 27.3528 243.298 26.6497 242.377 26.0588L240.217 29.4256ZM247.576 31.9794C250.744 32.6857 253.209 33.5087 255.027 34.4178L256.816 30.8401C254.603 29.7335 251.796 28.8221 248.447 28.0753L247.576 31.9794ZM255.027 34.4178C256.827 35.3173 258.009 36.333 258.727 37.4008L262.047 35.1695C260.842 33.3779 259.048 31.9561 256.816 30.8401L255.027 34.4178ZM258.748 37.4321C259.456 38.4428 259.863 39.7455 259.863 41.4531H263.863C263.863 39.0826 263.286 36.94 262.025 35.1382L258.748 37.4321ZM259.863 41.4531C259.863 44.2229 258.799 46.3649 256.576 48.0511L258.994 51.2379C262.209 48.7991 263.863 45.4803 263.863 41.4531H259.863ZM256.585 48.0445C254.298 49.76 251.227 50.7031 247.203 50.7031V54.7031C251.851 54.7031 255.835 53.6072 258.985 51.2445L256.585 48.0445ZM247.203 50.7031C244.393 50.7031 241.991 50.2066 239.953 49.269L238.281 52.9029C240.93 54.1215 243.919 54.7031 247.203 54.7031V50.7031ZM239.953 49.269C237.899 48.3243 236.352 47.0439 235.24 45.4444L231.955 47.7275C233.515 49.9718 235.647 51.6913 238.281 52.9029L239.953 49.269ZM235.256 45.4673C234.156 43.8374 233.629 42.1266 233.629 40.293H229.629C229.629 42.9593 230.414 45.4438 231.94 47.7045L235.256 45.4673ZM231.629 42.293H238.133V38.293H231.629V42.293ZM236.136 40.4003C236.282 43.1146 237.397 45.3931 239.488 47.06L241.981 43.9321C240.838 43.0209 240.218 41.8307 240.13 40.1856L236.136 40.4003ZM239.513 47.0797C241.593 48.6847 244.218 49.3945 247.203 49.3945V45.3945C244.844 45.3945 243.157 44.8387 241.956 43.9125L239.513 47.0797ZM247.203 49.3945C249.911 49.3945 252.309 48.8551 254.219 47.5821L252 44.2539C250.956 44.9496 249.417 45.3945 247.203 45.3945V49.3945ZM254.225 47.5781C256.221 46.2365 257.359 44.3054 257.359 41.9102H253.359C253.359 42.8431 252.997 43.5838 251.994 44.2579L254.225 47.5781ZM273.535 47.6406L272.086 49.0194L272.091 49.0244L273.535 47.6406ZM270.828 22.75L269.031 21.8726L269.028 21.8785L270.828 22.75ZM276.875 15.7891L277.96 17.4694L277.963 17.467L276.875 15.7891ZM300.957 34.8438V36.8438H302.957V34.8438H300.957ZM275.188 34.8438V32.8438H273.137L273.188 34.8937L275.188 34.8438ZM278.457 43.9492L276.97 45.2863L276.977 45.2942L276.984 45.302L278.457 43.9492ZM296.492 42.2617L297.721 40.6838L296.137 39.4503L294.91 41.0388L296.492 42.2617ZM300.465 45.3555L302.141 46.4463L303.143 44.9064L301.694 43.7775L300.465 45.3555ZM278.703 21.4844L280.162 22.8529L280.17 22.8439L278.703 21.4844ZM275.398 29.5L273.413 29.2569L273.139 31.5H275.398V29.5ZM294.453 29.5V31.5H296.453V29.5H294.453ZM294.453 29.0078H296.453V28.9511L296.45 28.8945L294.453 29.0078ZM291.781 21.3438L290.274 22.658L290.282 22.6676L291.781 21.3438ZM286.121 50.7031C281.448 50.7031 277.795 49.1955 274.979 46.2568L272.091 49.0244C275.744 52.8357 280.482 54.7031 286.121 54.7031V50.7031ZM274.984 46.2618C272.175 43.3101 270.684 39.3074 270.684 34.0352H266.684C266.684 40.1067 268.427 45.1743 272.086 49.0194L274.984 46.2618ZM270.684 34.0352V32.8398H266.684V34.0352H270.684ZM270.684 32.8398C270.684 29.3229 271.349 26.2649 272.628 23.6215L269.028 21.8785C267.448 25.1414 266.684 28.8099 266.684 32.8398H270.684ZM272.625 23.6274C273.932 20.9515 275.712 18.9201 277.96 17.4694L275.79 14.1087C272.882 15.9861 270.631 18.5954 269.031 21.8726L272.625 23.6274ZM277.963 17.467C280.25 15.984 282.686 15.2578 285.312 15.2578V11.2578C281.892 11.2578 278.703 12.2191 275.787 14.1111L277.963 17.467ZM285.312 15.2578C289.774 15.2578 293.015 16.7013 295.314 19.4325L298.374 16.8566C295.188 13.0721 290.742 11.2578 285.312 11.2578V15.2578ZM295.314 19.4325C297.646 22.2032 298.957 26.3405 298.957 32.1367H302.957C302.957 25.7924 301.526 20.6015 298.374 16.8566L295.314 19.4325ZM298.957 32.1367V34.8438H302.957V32.1367H298.957ZM300.957 32.8438H275.188V36.8438H300.957V32.8438ZM273.188 34.8937C273.291 39.0194 274.504 42.5433 276.97 45.2863L279.944 42.6121C278.238 40.7145 277.271 38.1681 277.187 34.7938L273.188 34.8937ZM276.984 45.302C279.488 48.0284 282.702 49.3945 286.473 49.3945V45.3945C283.775 45.3945 281.645 44.4638 279.93 42.5964L276.984 45.302ZM286.473 49.3945C289.04 49.3945 291.355 48.8694 293.323 47.7122L291.295 44.2644C290.074 44.9821 288.499 45.3945 286.473 45.3945V49.3945ZM293.323 47.7122C295.148 46.6381 296.733 45.2215 298.075 43.4846L294.91 41.0388C293.861 42.3957 292.656 43.4634 291.295 44.2644L293.323 47.7122ZM295.263 43.8397L299.236 46.9334L301.694 43.7775L297.721 40.6838L295.263 43.8397ZM298.789 44.2646C296.008 48.5374 291.893 50.7031 286.121 50.7031V54.7031C293.1 54.7031 298.547 51.9704 302.141 46.4463L298.789 44.2646ZM285.312 16.6016C282.132 16.6016 279.397 17.7938 277.236 20.1248L280.17 22.8439C281.572 21.3312 283.243 20.6016 285.312 20.6016V16.6016ZM277.245 20.1159C275.09 22.4126 273.87 25.5292 273.413 29.2569L277.384 29.7431C277.771 26.5802 278.754 24.353 280.162 22.8529L277.245 20.1159ZM275.398 31.5H294.453V27.5H275.398V31.5ZM296.453 29.5V29.0078H292.453V29.5H296.453ZM296.45 28.8945C296.246 25.3078 295.265 22.2672 293.28 20.0199L290.282 22.6676C291.485 24.0297 292.285 26.0985 292.456 29.1211L296.45 28.8945ZM293.289 20.0295C291.267 17.71 288.531 16.6016 285.312 16.6016V20.6016C287.531 20.6016 289.108 21.3212 290.274 22.658L293.289 20.0295ZM326.832 22.5742L325.04 21.6854L325.035 21.6968L326.832 22.5742ZM332.949 15.6836L331.9 13.9808L331.893 13.985L332.949 15.6836ZM354.465 18.6367L352.97 19.9655L352.975 19.9709L354.465 18.6367ZM357.137 43.3867L355.337 42.5152L355.334 42.5213L357.137 43.3867ZM351.055 50.2422L350.001 48.542L349.995 48.5462L351.055 50.2422ZM329.434 47.3242L327.939 48.653L327.944 48.6584L329.434 47.3242ZM334.109 43.5625L332.518 44.7742L332.525 44.7833L334.109 43.5625ZM349.859 43.5273L351.456 44.732L351.461 44.725L349.859 43.5273ZM349.789 22.5039L348.194 23.7108L348.2 23.7188L348.206 23.7268L349.789 22.5039ZM326.652 32.6289C326.652 29.1681 327.325 26.1225 328.629 23.4516L325.035 21.6968C323.432 24.9791 322.652 28.6366 322.652 32.6289H326.652ZM328.624 23.463C329.95 20.7902 331.746 18.7865 334.005 17.3822L331.893 13.985C328.949 15.8151 326.668 18.4051 325.04 21.6854L328.624 23.463ZM333.998 17.3864C336.281 15.9803 338.9 15.2578 341.914 15.2578V11.2578C338.225 11.2578 334.868 12.1525 331.9 13.9808L333.998 17.3864ZM341.914 15.2578C346.574 15.2578 350.195 16.8433 352.97 19.9654L355.96 17.308C352.36 13.2583 347.614 11.2578 341.914 11.2578V15.2578ZM352.975 19.9709C355.784 23.1086 357.281 27.363 357.281 32.9453H361.281C361.281 26.6214 359.567 21.3367 355.955 17.3026L352.975 19.9709ZM357.281 32.9453V33.4023H361.281V32.9453H357.281ZM357.281 33.4023C357.281 36.8427 356.619 39.8669 355.337 42.5152L358.937 44.2582C360.514 41.0003 361.281 37.3683 361.281 33.4023H357.281ZM355.334 42.5213C354.085 45.1225 352.311 47.1113 350.001 48.542L352.108 51.9424C355.095 50.0919 357.376 47.5104 358.94 44.2522L355.334 42.5213ZM349.995 48.5462C347.72 49.9676 345.072 50.7031 341.984 50.7031V54.7031C345.74 54.7031 349.139 53.7981 352.115 51.9382L349.995 48.5462ZM341.984 50.7031C337.351 50.7031 333.726 49.1194 330.924 45.9901L327.944 48.6584C331.563 52.7009 336.305 54.7031 341.984 54.7031V50.7031ZM330.928 45.9955C328.137 42.8552 326.652 38.6204 326.652 33.0859H322.652C322.652 39.364 324.355 44.6214 327.939 48.6529L330.928 45.9955ZM326.652 33.0859V32.6289H322.652V33.0859H326.652ZM329.191 33.4023C329.191 37.9215 330.235 41.7758 332.518 44.7741L335.701 42.3509C334.093 40.2398 333.191 37.3207 333.191 33.4023H329.191ZM332.525 44.7833C334.88 47.8393 338.095 49.3945 341.984 49.3945V45.3945C339.311 45.3945 337.276 44.3951 335.694 42.3417L332.525 44.7833ZM341.984 49.3945C345.899 49.3945 349.122 47.8245 351.456 44.732L348.263 42.3227C346.706 44.3864 344.679 45.3945 341.984 45.3945V49.3945ZM351.461 44.725C353.756 41.656 354.777 37.5429 354.777 32.6289H350.777C350.777 37.043 349.853 40.1956 348.258 42.3297L351.461 44.725ZM354.777 32.6289C354.777 28.1399 353.702 24.2971 351.372 21.281L348.206 23.7268C349.86 25.8669 350.777 28.7742 350.777 32.6289H354.777ZM351.384 21.297C349.035 18.1925 345.818 16.6016 341.914 16.6016V20.6016C344.573 20.6016 346.606 21.6122 348.194 23.7108L351.384 21.297ZM341.914 16.6016C338.08 16.6016 334.906 18.1693 332.56 21.2128L335.729 23.6544C337.321 21.5885 339.327 20.6016 341.914 20.6016V16.6016ZM332.56 21.2128C330.221 24.249 329.191 28.4043 329.191 33.4023H333.191C333.191 28.8848 334.131 25.7276 335.729 23.6544L332.56 21.2128ZM370.004 18.5312L371.577 19.7664L371.581 19.7613L370.004 18.5312ZM391.766 18.1797L390.198 19.4222L393.377 23.4317L393.76 18.3293L391.766 18.1797ZM392.082 13.9609V11.9609H390.226L390.088 13.8114L392.082 13.9609ZM398.023 13.9609H400.023V11.9609H398.023V13.9609ZM393.629 62.7227L392.238 61.2856L392.232 61.2912L393.629 62.7227ZM367.824 60.4023L366.311 59.094L365.308 60.2548L366.169 61.5249L367.824 60.4023ZM371.199 56.5L372.754 55.2416L371.25 53.384L369.686 55.1917L371.199 56.5ZM388.812 58.9961L387.398 57.5818L387.389 57.5913L388.812 58.9961ZM391.484 48.2031H393.484V42.8441L389.973 46.8928L391.484 48.2031ZM370.004 47.3242L368.415 48.5391L368.42 48.5456L370.004 47.3242ZM375.066 43.5273L373.439 44.6898L373.444 44.6972L375.066 43.5273ZM391.484 41.5938L393.262 42.5105L393.484 42.0791V41.5938H391.484ZM391.484 24.2266H393.484V23.7142L393.238 23.2649L391.484 24.2266ZM367.891 32.6641C367.891 27.0323 369.192 22.8042 371.577 19.7664L368.431 17.2961C365.332 21.2427 363.891 26.4364 363.891 32.6641H367.891ZM371.581 19.7613C373.938 16.7398 376.985 15.2578 380.902 15.2578V11.2578C375.773 11.2578 371.554 13.2915 368.427 17.3012L371.581 19.7613ZM380.902 15.2578C385.008 15.2578 388.021 16.6756 390.198 19.4222L393.333 16.9371C390.307 13.1213 386.078 11.2578 380.902 11.2578V15.2578ZM393.76 18.3293L394.076 14.1105L390.088 13.8114L389.771 18.0301L393.76 18.3293ZM392.082 15.9609H398.023V11.9609H392.082V15.9609ZM396.023 13.9609V51.0859H400.023V13.9609H396.023ZM396.023 51.0859C396.023 55.5866 394.7 58.9027 392.238 61.2856L395.02 64.1597C398.418 60.8707 400.023 56.4291 400.023 51.0859H396.023ZM392.232 61.2912C389.776 63.688 386.404 64.9766 381.887 64.9766V68.9766C387.213 68.9766 391.669 67.4292 395.026 64.1541L392.232 61.2912ZM381.887 64.9766C379.439 64.9766 377.032 64.4555 374.651 63.3925L373.021 67.045C375.89 68.3258 378.85 68.9766 381.887 68.9766V64.9766ZM374.651 63.3925C372.309 62.3467 370.62 60.9623 369.479 59.2798L366.169 61.5249C367.794 63.9205 370.113 65.7471 373.021 67.045L374.651 63.3925ZM369.337 61.7106L372.712 57.8083L369.686 55.1917L366.311 59.094L369.337 61.7106ZM369.645 57.7584C372.77 61.6196 376.73 63.668 381.43 63.668V59.668C378.067 59.668 375.206 58.271 372.754 55.2416L369.645 57.7584ZM381.43 63.668C384.98 63.668 388.009 62.6574 390.236 60.4009L387.389 57.5913C386.1 58.8973 384.208 59.668 381.43 59.668V63.668ZM390.227 60.4103C392.481 58.1555 393.484 55.0798 393.484 51.4727H389.484C389.484 54.3343 388.706 56.2741 387.398 57.5819L390.227 60.4103ZM393.484 51.4727V48.2031H389.484V51.4727H393.484ZM389.973 46.8928C387.805 49.3936 384.838 50.7031 380.832 50.7031V54.7031C385.826 54.7031 389.961 53.0126 392.995 49.5134L389.973 46.8928ZM380.832 50.7031C377.011 50.7031 373.982 49.2075 371.588 46.1028L368.42 48.5456C371.557 52.6128 375.747 54.7031 380.832 54.7031V50.7031ZM371.593 46.1093C369.201 42.9812 367.891 38.5729 367.891 32.6641H363.891C363.891 39.1303 365.323 44.4954 368.415 48.5391L371.593 46.1093ZM370.43 33.4023C370.43 37.9399 371.357 41.7745 373.439 44.6898L376.694 42.3649C375.261 40.3583 374.43 37.4429 374.43 33.4023H370.43ZM373.444 44.6972C375.601 47.6876 378.682 49.1836 382.449 49.1836V45.1836C379.888 45.1836 378.048 44.2421 376.689 42.3575L373.444 44.6972ZM382.449 49.1836C384.812 49.1836 386.967 48.6434 388.836 47.4869C390.703 46.332 392.166 44.6362 393.262 42.5105L389.707 40.677C388.881 42.2778 387.877 43.377 386.732 44.0853C385.59 44.7921 384.188 45.1836 382.449 45.1836V49.1836ZM393.484 41.5938V24.2266H389.484V41.5938H393.484ZM393.238 23.2649C392.105 21.1981 390.633 19.552 388.788 18.4306C386.939 17.3067 384.826 16.7773 382.52 16.7773V20.7773C384.197 20.7773 385.571 21.1562 386.71 21.8487C387.854 22.5437 388.872 23.6222 389.731 25.1882L393.238 23.2649ZM382.52 16.7773C378.745 16.7773 375.657 18.2906 373.481 21.2961L376.722 23.6414C378.109 21.7251 379.966 20.7773 382.52 20.7773V16.7773ZM373.481 21.2961C371.346 24.2461 370.43 28.3826 370.43 33.4023H374.43C374.43 28.7658 375.294 25.6132 376.722 23.6414L373.481 21.2961ZM433.531 46.4805H431.531V48.4805H433.531V46.4805ZM457.789 46.4805H459.789V44.4805H457.789V46.4805ZM457.789 52V54H459.789V52H457.789ZM426.746 52H424.746V54H426.746V52ZM426.746 0.8125V-1.1875H424.746V0.8125H426.746ZM433.531 0.8125H435.531V-1.1875H433.531V0.8125ZM433.531 48.4805H457.789V44.4805H433.531V48.4805ZM455.789 46.4805V52H459.789V46.4805H455.789ZM457.789 50H426.746V54H457.789V50ZM428.746 52V0.8125H424.746V52H428.746ZM426.746 2.8125H433.531V-1.1875H426.746V2.8125ZM431.531 0.8125V46.4805H435.531V0.8125H431.531ZM486.406 48.2383L488.405 48.1636L488.213 43.0266L484.883 46.9426L486.406 48.2383ZM465.98 49.1875L464.487 50.5181L464.494 50.5259L464.501 50.5336L465.98 49.1875ZM462.781 38.7109H460.781L460.781 38.7211L462.781 38.7109ZM462.781 13.9609V11.9609H460.781V13.9609H462.781ZM469.285 13.9609H471.285V11.9609H469.285V13.9609ZM486.23 41.6289L488.059 42.439L488.23 42.0521V41.6289H486.23ZM486.23 13.9609V11.9609H484.23V13.9609H486.23ZM492.734 13.9609H494.734V11.9609H492.734V13.9609ZM492.734 52V54H494.734V52H492.734ZM486.547 52L484.548 52.0747L484.62 54H486.547V52ZM484.883 46.9426C482.825 49.3626 479.735 50.7031 475.262 50.7031V54.7031C480.585 54.7031 484.925 53.0671 487.93 49.5339L484.883 46.9426ZM475.262 50.7031C471.603 50.7031 469.114 49.6591 467.46 47.8414L464.501 50.5336C467.113 53.4034 470.811 54.7031 475.262 54.7031V50.7031ZM467.474 47.8569C465.809 45.9887 464.803 43.049 464.781 38.7008L460.781 38.7211C460.806 43.6073 461.933 47.6519 464.487 50.5181L467.474 47.8569ZM464.781 38.7109V13.9609H460.781V38.7109H464.781ZM462.781 15.9609H469.285V11.9609H462.781V15.9609ZM467.285 13.9609V38.5352H471.285V13.9609H467.285ZM467.285 38.5352C467.285 41.6374 467.907 44.3351 469.491 46.2831C471.139 48.3103 473.542 49.1836 476.316 49.1836V45.1836C474.403 45.1836 473.29 44.6154 472.595 43.7598C471.835 42.825 471.285 41.1986 471.285 38.5352H467.285ZM476.316 49.1836C479.04 49.1836 481.469 48.677 483.499 47.5397C485.556 46.3875 487.076 44.6568 488.059 42.439L484.402 40.8188C483.744 42.3041 482.792 43.3508 481.544 44.0501C480.269 44.7644 478.562 45.1836 476.316 45.1836V49.1836ZM488.23 41.6289V13.9609H484.23V41.6289H488.23ZM486.23 15.9609H492.734V11.9609H486.23V15.9609ZM490.734 13.9609V52H494.734V13.9609H490.734ZM492.734 50H486.547V54H492.734V50ZM488.545 51.9253L488.405 48.1636L484.408 48.313L484.548 52.0747L488.545 51.9253ZM522.793 37.832L521.593 39.432L521.609 39.444L521.625 39.4556L522.793 37.832ZM515.867 35.3008L515.448 37.2564L515.451 37.257L515.867 35.3008ZM508.027 32.7695L507.116 34.5496L507.124 34.5541L508.027 32.7695ZM503.738 29.2539L502.079 30.3699L502.085 30.3797L502.092 30.3894L503.738 29.2539ZM506.305 16.4922L505.042 14.9412L505.035 14.9467L506.305 16.4922ZM526.906 16.5977L525.626 18.1341L525.633 18.1396L526.906 16.5977ZM530.949 25.1406V27.1406H532.949V25.1406H530.949ZM524.41 25.1406H522.41V27.1406H524.41V25.1406ZM522.125 20.5352L520.821 22.052L520.827 22.057L520.833 22.0619L522.125 20.5352ZM517.449 30.0273L517.011 31.9787L517.014 31.9794L517.449 30.0273ZM529.824 36.2852L528.164 37.4008L528.175 37.4166L528.186 37.4321L529.824 36.2852ZM527.223 49.6445L528.423 51.2446L528.431 51.2379L527.223 49.6445ZM503.035 46.5859L501.377 47.7045L501.385 47.7161L501.393 47.7275L503.035 46.5859ZM501.066 40.293V38.293H499.066V40.293H501.066ZM507.57 40.293L509.567 40.1856L509.466 38.293H507.57V40.293ZM510.172 45.4961L508.925 47.06L508.938 47.07L508.95 47.0797L510.172 45.4961ZM522.547 45.918L523.656 47.5821L523.662 47.5781L522.547 45.918ZM526.797 41.9102C526.797 39.5602 525.86 37.5742 523.961 36.2084L521.625 39.4556C522.398 40.0117 522.797 40.7445 522.797 41.9102H526.797ZM523.993 36.232C522.311 34.9703 519.634 34.0574 516.283 33.3446L515.451 37.257C518.71 37.9504 520.65 38.725 521.593 39.432L523.993 36.232ZM516.286 33.3452C513.093 32.6609 510.663 31.862 508.93 30.985L507.124 34.5541C509.282 35.6458 512.079 36.5344 515.448 37.2564L516.286 33.3452ZM508.939 30.9894C507.224 30.111 506.085 29.1345 505.385 28.1184L502.092 30.3894C503.266 32.092 504.987 33.4593 507.116 34.5496L508.939 30.9894ZM505.398 28.1379C504.737 27.1544 504.367 25.939 504.367 24.4023H500.367C500.367 26.6157 500.912 28.6347 502.079 30.3699L505.398 28.1379ZM504.367 24.4023C504.367 21.9423 505.364 19.8528 507.574 18.0376L505.035 14.9467C501.995 17.444 500.367 20.628 500.367 24.4023H504.367ZM507.567 18.0432C509.791 16.2327 512.692 15.2578 516.43 15.2578V11.2578C511.964 11.2578 508.115 12.4392 505.042 14.9412L507.567 18.0432ZM516.43 15.2578C520.39 15.2578 523.393 16.2737 525.626 18.1341L528.187 15.0612C525.075 12.4685 521.094 11.2578 516.43 11.2578V15.2578ZM525.633 18.1396C527.872 19.9897 528.949 22.2739 528.949 25.1406H532.949C532.949 21.0699 531.331 17.6588 528.18 15.0557L525.633 18.1396ZM530.949 23.1406H524.41V27.1406H530.949V23.1406ZM526.41 25.1406C526.41 22.6959 525.329 20.6261 523.417 19.0084L520.833 22.0619C521.968 23.0224 522.41 24.0228 522.41 25.1406H526.41ZM523.429 19.0183C521.508 17.3682 519.123 16.6016 516.43 16.6016V20.6016C518.33 20.6016 519.742 21.124 520.821 22.052L523.429 19.0183ZM516.43 16.6016C513.794 16.6016 511.456 17.1738 509.653 18.5653L512.097 21.7316C512.966 21.0606 514.331 20.6016 516.43 20.6016V16.6016ZM509.653 18.5653C507.835 19.9689 506.871 21.8974 506.871 24.1914H510.871C510.871 23.1573 511.244 22.3905 512.097 21.7316L509.653 18.5653ZM506.871 24.1914C506.871 26.3906 507.796 28.2335 509.654 29.4256L511.814 26.0588C511.188 25.6571 510.871 25.1328 510.871 24.1914H506.871ZM509.654 29.4256C511.218 30.4284 513.761 31.2488 517.011 31.9787L517.888 28.076C514.668 27.3528 512.735 26.6497 511.814 26.0588L509.654 29.4256ZM517.014 31.9794C520.181 32.6857 522.647 33.5087 524.465 34.4178L526.254 30.8401C524.041 29.7335 521.233 28.8221 517.885 28.0753L517.014 31.9794ZM524.465 34.4178C526.264 35.3173 527.447 36.333 528.164 37.4008L531.484 35.1695C530.28 33.3779 528.486 31.9561 526.254 30.8401L524.465 34.4178ZM528.186 37.4321C528.893 38.4428 529.301 39.7455 529.301 41.4531H533.301C533.301 39.0826 532.724 36.94 531.463 35.1382L528.186 37.4321ZM529.301 41.4531C529.301 44.2229 528.237 46.3649 526.014 48.0511L528.431 51.2379C531.646 48.7991 533.301 45.4803 533.301 41.4531H529.301ZM526.023 48.0445C523.735 49.76 520.664 50.7031 516.641 50.7031V54.7031C521.289 54.7031 525.272 53.6072 528.423 51.2445L526.023 48.0445ZM516.641 50.7031C513.831 50.7031 511.429 50.2066 509.391 49.269L507.719 52.9029C510.368 54.1215 513.357 54.7031 516.641 54.7031V50.7031ZM509.391 49.269C507.337 48.3243 505.789 47.0439 504.677 45.4444L501.393 47.7275C502.953 49.9718 505.085 51.6913 507.719 52.9029L509.391 49.269ZM504.693 45.4673C503.593 43.8374 503.066 42.1266 503.066 40.293H499.066C499.066 42.9593 499.852 45.4438 501.377 47.7045L504.693 45.4673ZM501.066 42.293H507.57V38.293H501.066V42.293ZM505.573 40.4003C505.719 43.1146 506.834 45.3931 508.925 47.06L511.419 43.9321C510.275 43.0209 509.656 41.8307 509.567 40.1856L505.573 40.4003ZM508.95 47.0797C511.031 48.6847 513.656 49.3945 516.641 49.3945V45.3945C514.282 45.3945 512.594 44.8387 511.393 43.9125L508.95 47.0797ZM516.641 49.3945C519.349 49.3945 521.747 48.8551 523.656 47.5821L521.438 44.2539C520.394 44.9496 518.854 45.3945 516.641 45.3945V49.3945ZM523.662 47.5781C525.659 46.2365 526.797 44.3054 526.797 41.9102H522.797C522.797 42.8431 522.435 43.5838 521.432 44.2579L523.662 47.5781ZM559.918 37.832L558.718 39.432L558.734 39.444L558.75 39.4556L559.918 37.832ZM552.992 35.3008L552.573 37.2564L552.576 37.257L552.992 35.3008ZM545.152 32.7695L544.241 34.5496L544.249 34.5541L545.152 32.7695ZM540.863 29.2539L539.204 30.3699L539.21 30.3797L539.217 30.3894L540.863 29.2539ZM543.43 16.4922L542.167 14.9412L542.16 14.9467L543.43 16.4922ZM564.031 16.5977L562.751 18.1341L562.758 18.1396L564.031 16.5977ZM568.074 25.1406V27.1406H570.074V25.1406H568.074ZM561.535 25.1406H559.535V27.1406H561.535V25.1406ZM559.25 20.5352L557.946 22.052L557.952 22.057L557.958 22.0619L559.25 20.5352ZM554.574 30.0273L554.136 31.9787L554.139 31.9794L554.574 30.0273ZM566.949 36.2852L565.289 37.4008L565.3 37.4166L565.311 37.4321L566.949 36.2852ZM564.348 49.6445L565.548 51.2446L565.556 51.2379L564.348 49.6445ZM540.16 46.5859L538.502 47.7045L538.51 47.7161L538.518 47.7275L540.16 46.5859ZM538.191 40.293V38.293H536.191V40.293H538.191ZM544.695 40.293L546.692 40.1856L546.591 38.293H544.695V40.293ZM547.297 45.4961L546.05 47.06L546.063 47.07L546.075 47.0797L547.297 45.4961ZM559.672 45.918L560.781 47.5821L560.787 47.5781L559.672 45.918ZM563.922 41.9102C563.922 39.5602 562.985 37.5742 561.086 36.2084L558.75 39.4556C559.523 40.0117 559.922 40.7445 559.922 41.9102H563.922ZM561.118 36.232C559.436 34.9703 556.759 34.0574 553.408 33.3446L552.576 37.257C555.835 37.9504 557.775 38.725 558.718 39.432L561.118 36.232ZM553.411 33.3452C550.218 32.6609 547.788 31.862 546.055 30.985L544.249 34.5541C546.407 35.6458 549.204 36.5344 552.573 37.2564L553.411 33.3452ZM546.064 30.9894C544.349 30.111 543.21 29.1345 542.51 28.1184L539.217 30.3894C540.391 32.092 542.112 33.4593 544.241 34.5496L546.064 30.9894ZM542.523 28.1379C541.862 27.1544 541.492 25.939 541.492 24.4023H537.492C537.492 26.6157 538.037 28.6347 539.204 30.3699L542.523 28.1379ZM541.492 24.4023C541.492 21.9423 542.489 19.8528 544.699 18.0376L542.16 14.9467C539.12 17.444 537.492 20.628 537.492 24.4023H541.492ZM544.692 18.0432C546.916 16.2327 549.817 15.2578 553.555 15.2578V11.2578C549.089 11.2578 545.24 12.4392 542.167 14.9412L544.692 18.0432ZM553.555 15.2578C557.515 15.2578 560.518 16.2737 562.751 18.1341L565.312 15.0612C562.2 12.4685 558.219 11.2578 553.555 11.2578V15.2578ZM562.758 18.1396C564.997 19.9897 566.074 22.2739 566.074 25.1406H570.074C570.074 21.0699 568.456 17.6588 565.305 15.0557L562.758 18.1396ZM568.074 23.1406H561.535V27.1406H568.074V23.1406ZM563.535 25.1406C563.535 22.6959 562.454 20.6261 560.542 19.0084L557.958 22.0619C559.093 23.0224 559.535 24.0228 559.535 25.1406H563.535ZM560.554 19.0183C558.633 17.3682 556.248 16.6016 553.555 16.6016V20.6016C555.455 20.6016 556.867 21.124 557.946 22.052L560.554 19.0183ZM553.555 16.6016C550.919 16.6016 548.581 17.1738 546.778 18.5653L549.222 21.7316C550.091 21.0606 551.456 20.6016 553.555 20.6016V16.6016ZM546.778 18.5653C544.96 19.9689 543.996 21.8974 543.996 24.1914H547.996C547.996 23.1573 548.369 22.3905 549.222 21.7316L546.778 18.5653ZM543.996 24.1914C543.996 26.3906 544.921 28.2335 546.779 29.4256L548.939 26.0588C548.313 25.6571 547.996 25.1328 547.996 24.1914H543.996ZM546.779 29.4256C548.343 30.4284 550.886 31.2488 554.136 31.9787L555.013 28.076C551.793 27.3528 549.86 26.6497 548.939 26.0588L546.779 29.4256ZM554.139 31.9794C557.306 32.6857 559.772 33.5087 561.59 34.4178L563.379 30.8401C561.166 29.7335 558.358 28.8221 555.01 28.0753L554.139 31.9794ZM561.59 34.4178C563.389 35.3173 564.572 36.333 565.289 37.4008L568.609 35.1695C567.405 33.3779 565.611 31.9561 563.379 30.8401L561.59 34.4178ZM565.311 37.4321C566.018 38.4428 566.426 39.7455 566.426 41.4531H570.426C570.426 39.0826 569.849 36.94 568.588 35.1382L565.311 37.4321ZM566.426 41.4531C566.426 44.2229 565.362 46.3649 563.139 48.0511L565.556 51.2379C568.771 48.7991 570.426 45.4803 570.426 41.4531H566.426ZM563.148 48.0445C560.86 49.76 557.789 50.7031 553.766 50.7031V54.7031C558.414 54.7031 562.397 53.6072 565.548 51.2445L563.148 48.0445ZM553.766 50.7031C550.956 50.7031 548.554 50.2066 546.516 49.269L544.844 52.9029C547.493 54.1215 550.482 54.7031 553.766 54.7031V50.7031ZM546.516 49.269C544.462 48.3243 542.914 47.0439 541.802 45.4444L538.518 47.7275C540.078 49.9718 542.21 51.6913 544.844 52.9029L546.516 49.269ZM541.818 45.4673C540.718 43.8374 540.191 42.1266 540.191 40.293H536.191C536.191 42.9593 536.977 45.4438 538.502 47.7045L541.818 45.4673ZM538.191 42.293H544.695V38.293H538.191V42.293ZM542.698 40.4003C542.844 43.1146 543.959 45.3931 546.05 47.06L548.544 43.9321C547.4 43.0209 546.781 41.8307 546.692 40.1856L542.698 40.4003ZM546.075 47.0797C548.156 48.6847 550.781 49.3945 553.766 49.3945V45.3945C551.407 45.3945 549.719 44.8387 548.518 43.9125L546.075 47.0797ZM553.766 49.3945C556.474 49.3945 558.872 48.8551 560.781 47.5821L558.562 44.2539C557.519 44.9496 555.979 45.3945 553.766 45.3945V49.3945ZM560.787 47.5781C562.784 46.2365 563.922 44.3054 563.922 41.9102H559.922C559.922 42.8431 559.56 43.5838 558.557 44.2579L560.787 47.5781ZM583.965 52V54H585.965V52H583.965ZM577.461 52H575.461V54H577.461V52ZM577.461 13.9609V11.9609H575.461V13.9609H577.461ZM583.965 13.9609H585.965V11.9609H583.965V13.9609ZM577.883 1.19922L576.399 -0.141354L576.387 -0.127956L576.375 -0.114343L577.883 1.19922ZM577.883 6.50781L576.396 7.84574L576.408 7.85921L576.421 7.87245L577.883 6.50781ZM583.965 50H577.461V54H583.965V50ZM579.461 52V13.9609H575.461V52H579.461ZM577.461 15.9609H583.965V11.9609H577.461V15.9609ZM581.965 13.9609V52H585.965V13.9609H581.965ZM578.934 3.87109C578.934 3.25003 579.106 2.83972 579.391 2.51278L576.375 -0.114343C575.394 1.01184 574.934 2.38279 574.934 3.87109H578.934ZM579.367 2.53979C579.54 2.34787 579.89 2.10938 580.766 2.10938V-1.89062C579.11 -1.89062 577.538 -1.40256 576.399 -0.141354L579.367 2.53979ZM580.766 2.10938C581.641 2.10938 581.991 2.34787 582.164 2.53979L585.133 -0.141354C583.993 -1.40256 582.421 -1.89062 580.766 -1.89062V2.10938ZM582.164 2.53979C582.462 2.86901 582.633 3.27008 582.633 3.87109H586.633C586.633 2.36273 586.148 0.982551 585.133 -0.141354L582.164 2.53979ZM582.633 3.87109C582.633 4.47243 582.462 4.84756 582.186 5.14318L585.111 7.87245C586.147 6.76182 586.633 5.37913 586.633 3.87109H582.633ZM582.186 5.14318C582.018 5.32383 581.661 5.5625 580.766 5.5625V9.5625C582.402 9.5625 583.967 9.09805 585.111 7.87245L582.186 5.14318ZM580.766 5.5625C579.871 5.5625 579.514 5.32383 579.345 5.14318L576.421 7.87245C577.565 9.09805 579.129 9.5625 580.766 9.5625V5.5625ZM579.369 5.16988C579.106 4.87707 578.934 4.49287 578.934 3.87109H574.934C574.934 5.35869 575.394 6.7323 576.396 7.84574L579.369 5.16988Z" fill="black"/>
</g>
<defs>
<filter id="filter0_di_3_3" x="0.941406" y="0.109375" width="587.691" height="75.2539" filterUnits="userSpaceOnUse" color-interpolation-filters="sRGB">
<feFlood flood-opacity="0" result="BackgroundImageFix"/>
<feColorMatrix in="SourceAlpha" type="matrix" values="0 0 0 0 0 0 0 0 0 0 0 0 0 0 0 0 0 0 127 0" result="hardAlpha"/>
<feOffset dy="4"/>
<feGaussianBlur stdDeviation="2"/>
<feComposite in2="hardAlpha" operator="out"/>
<feColorMatrix type="matrix" values="0 0 0 0 0 0 0 0 0 0 0 0 0 0 0 0 0 0 0.25 0"/>
<feBlend mode="normal" in2="BackgroundImageFix" result="effect1_dropShadow_3_3"/>
<feBlend mode="normal" in="SourceGraphic" in2="effect1_dropShadow_3_3" result="shape"/>
<feColorMatrix in="SourceAlpha" type="matrix" values="0 0 0 0 0 0 0 0 0 0 0 0 0 0 0 0 0 0 127 0" result="hardAlpha"/>
<feOffset dy="4"/>
<feGaussianBlur stdDeviation="2"/>
<feComposite in2="hardAlpha" operator="arithmetic" k2="-1" k3="1"/>
<feColorMatrix type="matrix" values="0 0 0 0 0 0 0 0 0 0 0 0 0 0 0 0 0 0 0.25 0"/>
<feBlend mode="normal" in2="shape" result="effect2_innerShadow_3_3"/>
</filter>
</defs>
</svg>
